<svg version="1.1" xmlns="http://www.w3.org/2000/svg" viewBox="-2516.0728359428153 -1694.7200653076172 8675.433148595403 2549.760076904297"><desc>Created with Snap</desc><defs><linearGradient x1="-2516.0728359428153" y1="-1694.7200653076172" x2="6159.360312652587" y2="-1694.7200653076172" gradientUnits="userSpaceOnUse" id="linearGradientSkusluao418r"><stop offset="0%" stop-color="#222e49"></stop><stop offset="100%" stop-color="#5064ae"></stop></linearGradient></defs><g><rect x="-2516.0728359428153" y="-1694.7200653076172" width="8675.433148595403" height="2549.760076904297" fill="url('#linearGradientSkusluao418r')"></rect><g transform="matrix(21.5279,0,0,21.5279,-2316.5124,-1495.1597)"><g><path d="M78.4,66.5c-5.5,4.8-9.9,15.2-9.9,15.2s-6.9-11.4-12.9-15.3c-9.5-6.1-13.6-6.2-13.6-6.2V65c0,0,7.8,1.2,11.7,4.6   c8.2,7.1,14.8,18.5,14.8,18.5S74.4,75,80.1,70.5C88.1,64.3,95,65,95,65v-4.8C95,60.1,85.1,60.7,78.4,66.5z" fill="#ffffff" style=""></path><path d="M42,80c-6.4-3.6-17.8-4.3-17.8-4.3s8.7-10.1,10.5-17C37.5,47.9,36.2,44,36.2,44l-4.6,1.6c0,0,1.3,7.7-0.6,12.4   c-4.1,9.9-13,19.8-13,19.8s14.6,1.3,20.7,5.1c8.6,5.4,10.2,12,10.2,12l4.6-1.6C53.5,93.4,49.7,84.4,42,80z" fill="#ffffff" style=""></path><path d="M35.3,36.8c11.3-0.9,14.6-3.4,14.6-3.4l-3-3.8c0,0-6.9,3.7-12.1,3.4c-10.9-0.6-23.3-5.6-23.3-5.6s3.5,14,1.8,20.9   C10.9,58.2,5,61.8,5,61.8l3,3.8c0,0,7.5-6.5,9.1-15.1c1.3-7.1-1.7-18-1.7-18S28,37.4,35.3,36.8z" fill="#ffffff" style=""></path><path d="M37.4,17.8c7.3-1.1,16.7-7.4,16.7-7.4s-0.6,13.2,2.4,19.8c4.6,10.2,8,12.5,8,12.5l2.7-4c0,0-5.9-5.2-7.3-10.2   C56.9,18.2,57.7,5,57.7,5s-12.3,7.8-19.5,8.5c-10.2,1-15.6-3.3-15.6-3.3l-2.7,4.1C19.9,14.2,28.6,19.1,37.4,17.8z" fill="#ffffff" style=""></path><path d="M65,60.5c0,0,3.1-7.2,7.4-10.1c9-6.1,21.9-9.7,21.9-9.7s-11.5-8.9-14.5-15.4c-4.2-9.1-1.9-15.6-1.9-15.6l-4.8-1.2   c0,0-1.9,9.6,2.2,17.4c3.4,6.4,12.5,13.2,12.5,13.2S75,42.9,69.6,47.8c-8.3,7.6-9.4,11.5-9.4,11.5L65,60.5z" fill="#ffffff" style=""></path></g><desc>Created with Snap</desc><defs></defs></g><g><g transform="matrix(1.024,0,0,-1.024,0,0)"><path d="M700 556Q700 448 616 391Q532 335 372 335L287 335L287 159Q287 121 292 97Q297 74 313 61Q329 48 357 44Q385 40 432 40L432 0L35 0L35 40Q68 41 89 46Q110 51 121 63Q132 75 136 97Q140 119 140 154L140 616Q140 651 136 672Q133 694 123 706Q113 719 94 723Q76 728 46 730L46 770L392 770Q544 770 622 716Q700 662 700 556ZM287 697L287 395L352 395Q449 395 494 434Q539 473 539 557Q539 632 501 673Q463 714 382 714L305 714Q287 714 287 697ZM964 830L964 164Q964 124 967 100Q970 76 979 63Q988 50 1005 45Q1022 41 1051 40L1051 0L736 0L736 40Q764 41 781 46Q799 52 808 64Q818 77 821 99Q825 122 825 157L825 570Q825 628 823 665Q821 703 818 717Q813 742 795 750Q778 758 732 758L732 792L964 830ZM1416 190L1416 285Q1332 247 1289 214Q1247 182 1247 147Q1247 118 1263 101Q1279 84 1303 84Q1327 84 1348 92Q1369 101 1384 115Q1399 129 1407 148Q1416 168 1416 190ZM1275 277L1416 338L1416 380Q1416 438 1395 464Q1375 491 1332 491Q1303 491 1288 475Q1273 460 1260 424Q1251 399 1234 385Q1218 371 1189 371Q1161 371 1146 388Q1131 405 1131 436Q1131 484 1183 512Q1236 540 1342 540Q1454 540 1502 499Q1550 459 1550 364L1550 145Q1550 60 1584 60Q1603 60 1619 73L1634 44Q1620 19 1590 4Q1561 -10 1524 -10Q1478 -10 1454 18Q1430 46 1430 97L1425 97Q1396 45 1350 18Q1304 -9 1245 -9Q1182 -9 1144 26Q1106 62 1106 119Q1106 163 1145 201Q1184 240 1275 277ZM1903 301L1903 163Q1903 122 1905 98Q1908 75 1916 62Q1925 50 1942 46Q1960 42 1990 40L1990 0L1675 0L1675 40Q1704 42 1721 46Q1739 50 1748 62Q1758 74 1761 96Q1764 118 1764 156L1764 281Q1764 340 1762 376Q1760 413 1757 426Q1754 439 1749 447Q1744 456 1734 460Q1724 465 1709 466Q1694 468 1671 468L1671 502L1864 540L1877 452L1881 452Q1914 494 1959 517Q2004 540 2058 540Q2122 540 2161 522Q2201 505 2232 464Q2249 441 2262 404Q2275 368 2275 304L2275 163Q2275 122 2277 98Q2280 75 2288 62Q2297 50 2314 46Q2331 42 2360 40L2360 0L2047 0L2047 40Q2077 41 2094 45Q2112 50 2121 62Q2130 74 2133 96Q2136 119 2136 156L2136 292Q2136 343 2130 378Q2124 413 2110 434Q2097 456 2075 465Q2053 475 2020 475Q1988 475 1965 457Q1942 439 1925 407Q1916 389 1909 360Q1903 332 1903 301ZM2600 123L2601 118L2805 118Q2830 118 2849 122Q2868 127 2882 140Q2897 153 2909 175Q2921 198 2932 233L2976 233L2936 0L2412 0L2412 46Q2531 148 2607 222Q2683 297 2726 355Q2770 414 2786 463Q2803 513 2803 566Q2803 639 2770 681Q2737 723 2680 723Q2653 723 2629 713Q2606 704 2589 687Q2573 670 2563 646Q2554 622 2554 594Q2554 544 2579 515Q2605 486 2649 486Q2644 457 2621 440Q2599 423 2567 423Q2536 423 2509 434Q2483 445 2463 465Q2444 485 2433 512Q2422 540 2422 573Q2422 618 2442 655Q2463 693 2500 721Q2537 749 2587 764Q2638 780 2697 780Q2756 780 2805 764Q2854 748 2889 719Q2925 691 2944 651Q2964 612 2964 564Q2964 504 2936 447Q2909 390 2860 336Q2812 282 2745 229Q2679 176 2600 123ZM3601 187L3605 187L3836 770L4128 770L4128 730Q4095 730 4074 723Q4054 717 4043 700Q4032 683 4028 653Q4025 624 4025 579L4025 191Q4025 141 4029 112Q4033 83 4045 67Q4057 51 4079 46Q4102 41 4139 40L4139 0L3763 0L3763 40Q3800 41 3822 46Q3845 52 3857 67Q3870 82 3874 109Q3878 137 3878 184L3878 652L3873 652L3604 -10L3530 -10L3252 652L3248 652L3248 191Q3248 141 3252 112Q3256 83 3268 67Q3280 51 3302 46Q3325 41 3362 40L3362 0L3054 0L3054 40Q3091 41 3114 46Q3137 52 3149 67Q3162 82 3166 109Q3170 137 3170 184L3170 586Q3170 628 3166 656Q3162 684 3151 700Q3140 717 3119 723Q3099 730 3065 730L3065 770L3368 770L3601 187ZM4681 128L4709 93Q4618 -10 4482 -10Q4420 -10 4369 9Q4319 29 4283 64Q4247 100 4227 149Q4207 198 4207 258Q4207 320 4228 371Q4249 423 4287 460Q4326 498 4378 519Q4431 540 4494 540Q4600 540 4659 483Q4718 426 4718 323Q4718 307 4713 303Q4708 300 4685 300L4363 300Q4359 291 4359 267Q4359 169 4401 112Q4444 55 4517 55Q4559 55 4600 74Q4642 93 4681 128ZM4370 356L4515 356Q4555 356 4566 360Q4578 365 4578 382Q4578 426 4553 454Q4528 482 4490 482Q4447 482 4413 446Q4380 411 4370 356ZM5266 128L5294 93Q5203 -10 5067 -10Q5005 -10 4954 9Q4904 29 4868 64Q4832 100 4812 149Q4792 198 4792 258Q4792 320 4813 371Q4834 423 4872 460Q4911 498 4963 519Q5016 540 5079 540Q5185 540 5244 483Q5303 426 5303 323Q5303 307 5298 303Q5293 300 5270 300L4948 300Q4944 291 4944 267Q4944 169 4986 112Q5029 55 5102 55Q5144 55 5185 74Q5227 93 5266 128ZM4955 356L5100 356Q5140 356 5151 360Q5163 365 5163 382Q5163 426 5138 454Q5113 482 5075 482Q5032 482 4998 446Q4965 411 4955 356ZM5437 475L5364 475L5364 520Q5424 537 5464 571Q5505 606 5525 651L5576 651L5576 530L5691 530L5691 475L5576 475L5576 168Q5576 106 5589 80Q5603 54 5635 54Q5674 54 5694 90L5715 61Q5687 -10 5583 -10Q5514 -10 5475 22Q5437 54 5437 112L5437 475Z" fill="#ffffff" style=""></path></g></g></g></svg>